<svg width="26" height="15" viewBox="0 0 26 15" fill="none" xmlns="http://www.w3.org/2000/svg">
<path d="M4.48575 8.64117L9.43041 12.7867L9.43044 12.7867C9.64388 12.9657 9.77473 13.2189 9.77473 13.4945C9.77473 13.77 9.64388 14.0232 9.43044 14.2022C9.21831 14.3801 8.93865 14.4744 8.65433 14.4744C8.51274 14.4744 8.37178 14.4511 8.23921 14.405C8.10664 14.359 7.98369 14.2906 7.87822 14.2022L0.924082 8.37004L4.48575 8.64117ZM4.48575 8.64117L24.3017 8.64117C24.5857 8.64117 24.8651 8.54693 25.077 8.36919C25.2902 8.19037 25.421 7.93741 25.421 7.66213C25.421 7.38685 25.2902 7.1339 25.077 6.95507C24.8651 6.77733 24.5857 6.68309 24.3017 6.68309L4.48575 6.68309L9.43041 2.53754L9.43044 2.53751C9.64388 2.35851 9.77473 2.10532 9.77473 1.8298C9.77473 1.55427 9.64388 1.30108 9.43044 1.12208C9.21831 0.944174 8.93865 0.849835 8.65433 0.849835C8.37002 0.849835 8.09036 0.944174 7.87822 1.12208L0.924082 6.95422L4.48575 8.64117ZM0.671411 7.27185C0.731598 7.1502 0.818232 7.04282 0.923843 6.95442L0.671411 7.27185ZM0.671411 7.27185C0.61107 7.3938 0.579102 7.52658 0.579102 7.66213M0.671411 7.27185L0.579102 7.66213M0.579102 7.66213C0.579102 7.79768 0.61107 7.93046 0.671411 8.05242M0.579102 7.66213L0.671411 8.05242M0.671411 8.05242C0.731599 8.17406 0.818233 8.28145 0.923843 8.36985L0.671411 8.05242Z" fill="#6C70AC" stroke="#6C70AC" stroke-width="0.5"/>
</svg>
