<svg width="16" height="17" viewBox="0 0 16 17" fill="none" xmlns="http://www.w3.org/2000/svg">
<path fill-rule="evenodd" clip-rule="evenodd" d="M6.01404 2.66867C4.95317 2.66867 3.93576 3.0901 3.18561 3.84025C2.43547 4.59039 2.01404 5.60781 2.01404 6.66867C2.01404 7.72954 2.43547 8.74696 3.18561 9.4971C3.93576 10.2472 4.95317 10.6687 6.01404 10.6687C7.0749 10.6687 8.09232 10.2472 8.84247 9.4971C9.59261 8.74696 10.014 7.72954 10.014 6.66867C10.014 5.60781 9.59261 4.59039 8.84247 3.84025C8.09232 3.0901 7.0749 2.66867 6.01404 2.66867ZM0.0140382 6.66867C0.0139177 5.72438 0.236681 4.79339 0.664209 3.95142C1.09174 3.10945 1.71196 2.38027 2.47443 1.8232C3.23691 1.26613 4.1201 0.896886 5.05218 0.745507C5.98427 0.594128 6.93892 0.664885 7.8385 0.952024C8.73808 1.23916 9.55719 1.73458 10.2292 2.39797C10.9012 3.06136 11.4072 3.87401 11.7059 4.76981C12.0046 5.66561 12.0877 6.61927 11.9484 7.55323C11.809 8.48719 11.4512 9.37507 10.904 10.1447L15.721 14.9617C15.9032 15.1503 16.004 15.4029 16.0017 15.6651C15.9994 15.9273 15.8943 16.1781 15.7089 16.3635C15.5234 16.5489 15.2726 16.6541 15.0104 16.6563C14.7482 16.6586 14.4956 16.5578 14.307 16.3757L9.49104 11.5597C8.5934 12.198 7.53739 12.5768 6.43871 12.6548C5.34004 12.7328 4.24111 12.5068 3.26234 12.0016C2.28357 11.4965 1.46272 10.7317 0.889762 9.79103C0.316798 8.85035 0.013824 7.77011 0.0140382 6.66867Z" fill="#F9F9F9"/>
</svg>
